<svg width="16" height="16" viewBox="0 0 16 16" fill="none" xmlns="http://www.w3.org/2000/svg">
<path fill-rule="evenodd" clip-rule="evenodd" d="M12.2728 11.4498L15.7133 15.4872L15.1166 16L11.6667 11.9627C10.4794 12.864 9.14296 13.3146 7.65732 13.3146C6.75599 13.3146 5.89352 13.139 5.06992 12.7878C4.24632 12.4366 3.53769 11.9642 2.94404 11.3706C2.35039 10.777 1.87797 10.0684 1.5268 9.24473C1.17562 8.4211 1.00002 7.55863 1 6.65732C0.999976 5.75601 1.17557 4.89355 1.5268 4.06992C1.87802 3.2463 2.35044 2.53767 2.94404 1.94404C3.53764 1.35041 4.24627 0.877997 5.06992 0.526798C5.89357 0.1756 6.75604 0 7.65732 0C8.55861 0 9.42108 0.1756 10.2447 0.526798C11.0684 0.877997 11.777 1.35041 12.3706 1.94404C12.9642 2.53767 13.4366 3.2463 13.7878 4.06992C14.1391 4.89355 14.3147 5.75601 14.3146 6.65732C14.3146 7.5835 14.1344 8.45996 13.7739 9.28669C13.4133 10.1134 12.9129 10.8345 12.2727 11.4499L12.2728 11.4498ZM7.6574 12.5314C8.72032 12.5314 9.70245 12.2688 10.6038 11.7435C11.5051 11.2182 12.2184 10.5049 12.7436 9.60363C13.2689 8.70232 13.5315 7.7202 13.5316 6.65725C13.5316 5.5943 13.2689 4.61217 12.7436 3.71086C12.2184 2.80955 11.5051 2.09628 10.6038 1.57103C9.7025 1.04579 8.72037 0.783167 7.6574 0.783167C6.59443 0.783167 5.6123 1.04579 4.71101 1.57103C3.80973 2.09628 3.09645 2.80955 2.57118 3.71086C2.04591 4.61217 1.78329 5.5943 1.78331 6.65725C1.78334 7.7202 2.04596 8.70232 2.57118 9.60363C3.0964 10.5049 3.80968 11.2182 4.71101 11.7435C5.61235 12.2688 6.59447 12.5314 7.6574 12.5314Z" fill="#B2B2B2"/>
</svg>
